<?xml version="1.0" encoding="utf-8"?>
<!-- Generator: Adobe Illustrator 19.0.0, SVG Export Plug-In . SVG Version: 6.00 Build 0)  -->
<svg version="1.1" id="Layer_1" xmlns="http://www.w3.org/2000/svg" xmlns:xlink="http://www.w3.org/1999/xlink" x="0px" y="0px"
	 viewBox="0 0 124.6 159.6" style="enable-background:new 0 0 124.6 159.6;" xml:space="preserve">
<style type="text/css">
	.st0{fill:none;}
	.st1{fill:#FFFFFF;}
</style>
<g id="XMLID_154_">
	<rect id="XMLID_7_" y="14.2" class="st0" width="83" height="83"/>
	<path id="XMLID_5_" class="st1" d="M56.1,70.8V44.1c0-4.4-2-7.4-6.7-7.4c-4,0-7.7,2.8-9.5,5.4v28.7h-8.9V44.1c0-4.4-2-7.4-6.8-7.4
		c-3.9,0-7.6,2.8-9.4,5.5v28.6H5.8V29.8h8.9v5.6c1.7-2.5,7.1-6.6,13.3-6.6c6.1,0,9.9,3.1,11.2,7.6c2.4-3.7,7.8-7.6,13.9-7.6
		c7.6,0,11.8,4.1,11.8,12.4v29.7H56.1z"/>
</g>
<g id="XMLID_152_">
	<rect id="XMLID_4_" x="63" y="79.1" class="st0" width="61.6" height="63.3"/>
	<path id="XMLID_2_" class="st1" d="M96,135.7l-12.6-16.9l-5.7,5.9v11.1h-8.9V79h8.9v35.4l18.1-19.8h11.1l-17.1,18.6l17.4,22.4H96z"
		/>
</g>
<g id="XMLID_1_">
</g>
<g id="XMLID_8_">
</g>
<g id="XMLID_9_">
</g>
<g id="XMLID_10_">
</g>
<g id="XMLID_11_">
</g>
<g id="XMLID_12_">
</g>
</svg>
